<svg width="112" height="92" viewBox="0 0 112 92" fill="none" xmlns="http://www.w3.org/2000/svg">
<path d="M6.33333 1H1L27.4012 74.3333L29.4012 68.3333L6.33333 1Z" fill="#242222"/>
<path d="M73.6667 73L59.6667 33L57 40.3333L76.3333 91H77.6667L111 1H97.6667L73.6667 73Z" fill="#242222"/>
<path d="M6.33333 1H1L27.4012 74.3333L29.4012 68.3333L6.33333 1Z" stroke="#242222" stroke-width="0.5" stroke-linecap="round"/>
<path d="M73.6667 73L59.6667 33L57 40.3333L76.3333 91H77.6667L111 1H97.6667L73.6667 73Z" stroke="#242222" stroke-width="0.5" stroke-linecap="round"/>
<path d="M48.0951 21L29 78.5478L33.4982 91H34.8252L58.0476 27.6667L68 1H54.7301L50.7491 13L49.4221 17L48.0951 21Z" fill="#A0A4B8"/>
<path d="M45.5789 1H39L46.3684 17L49 9L45.5789 1Z" fill="#A0A4B8"/>
</svg>
